<svg xmlns="http://www.w3.org/2000/svg" viewBox="0 0 493.89 493.89"><defs><style>.cls-1,.cls-7,.cls-8{fill:none;}.cls-1,.cls-2,.cls-5,.cls-7,.cls-8{stroke:#231f20;}.cls-1,.cls-2,.cls-5,.cls-6,.cls-7,.cls-8,.cls-9{stroke-miterlimit:10;}.cls-1{stroke-width:24px;}.cls-2,.cls-5{fill:#fff;}.cls-2,.cls-7,.cls-8{stroke-width:16px;}.cls-3{fill:#ccc;}.cls-4,.cls-6,.cls-9{fill:#231f20;}.cls-5{stroke-width:10px;}.cls-6,.cls-9{stroke:#fff;}.cls-7{stroke-linecap:round;}.cls-9{stroke-width:2px;}</style></defs><title>PandaIcon</title><g id="Layer_2" data-name="Layer 2"><g id="Layer_1-2" data-name="Layer 1"><circle class="cls-1" cx="246.95" cy="246.95" r="234.95"/><path class="cls-2" d="M67.15,391.14C92.3,366.45,129.76,328,245.49,328S398,366.45,426.74,391.14"/><ellipse class="cls-3" cx="274.19" cy="382.42" rx="108.24" ry="59.08"/><path class="cls-4" d="M73.28,168.73c0,27.25,9.23,32.8,61,43.57,26.67,5.55,60-39.19,54.33-56.9C184,141,165.56,107.28,131.21,108.9,104,110.19,73.28,132.84,73.28,168.73Z"/><path class="cls-4" d="M423.53,167.48c0,27.25-9.23,32.81-61,43.57-26.68,5.55-60-39.19-54.34-56.9,4.58-14.39,23.07-48.12,57.41-46.49C392.82,109,423.53,131.6,423.53,167.48Z"/><path class="cls-5" d="M390.39,274.33c0,78.42-38.86,142-142,142s-142-63.57-142-142,63.57-135.15,142-135.15S390.39,195.91,390.39,274.33Z"/><path class="cls-3" d="M369.05,201.37c-.58-16.28,7.88,3.43,13.32,25.39,33,133.43-50.59,189.56-134,189.56-78.42,0-111.53-46.61-119.72-55-9.56-9.76,63.15-2.22,63.15,9.5,0,24.94,74.8,26.08,83,24.57,25.74-4.77,29.58-22.78,30.15-26.12C316.39,302.12,372.34,294.25,369.05,201.37Z"/><path class="cls-6" d="M281.89,352.24c1.5,9.54-16.77,22.85-34.53,22.44-16.77-.39-34-13-32.43-22.44,1.5-9.19,20.56-2.55,33.48-2.54C261.51,349.7,280.47,343.22,281.89,352.24Z"/><path class="cls-7" d="M246.86,390.89c22.24,6.78,50.45,5.26,58.12-20.36"/><line class="cls-8" x1="248.41" y1="361.03" x2="248.41" y2="390.33"/><path class="cls-7" d="M250,390.89c-22.23,6.78-50.44,5.26-58.11-20.36"/><path class="cls-4" d="M357.85,287.65c8.11,11-29.27,39.25-43.49,20.29C297,284.75,292,291.4,278.42,271c-22.28-33.52,32.45-55.82,44.64-35.5C337,258.66,340.09,263.55,357.85,287.65Z"/><path class="cls-4" d="M139,287.65c-8.12,11,29.27,39.25,43.48,20.29,17.4-23.19,22.37-16.54,36-37,22.27-33.52-32.45-55.82-44.64-35.5C159.84,258.66,156.72,263.55,139,287.65Z"/><circle class="cls-9" cx="205.7" cy="256.06" r="9.13"/><circle class="cls-9" cx="291.11" cy="256.06" r="9.13"/><path class="cls-8" d="M390.71,274.33c0,78.42-38.86,142-142,142s-142-63.57-142-142,63.57-135.15,142-135.15S390.71,195.91,390.71,274.33Z"/><path class="cls-4" d="M396.79,429.59c0,1.19-65.11,57.86-148.38,57.86S95.24,430.78,95.24,429.59s69.9,16.6,153.17,16.6S396.79,428.4,396.79,429.59Z"/></g></g></svg>